<svg width="523" height="512" viewBox="0 0 523 512" fill="none" xmlns="http://www.w3.org/2000/svg">
<path fill-rule="evenodd" clip-rule="evenodd" d="M43.464 94.6562C47.8626 101.594 52.5052 106.875 59.1581 111.565C59.3441 100.013 60.3321 87.9101 64.8292 77.2476C70.6223 84.8188 73.1731 95.6323 76.9791 105.191C105.701 112.506 135.939 118.311 162.016 128.276C127.752 149.484 99.7158 176.932 83.051 215.743C75.7409 214.241 69.235 211.377 62.7334 208.514C50.8676 203.289 39.0152 198.071 22.3079 201.162C17.4501 192.257 9.03641 187.595 0.326694 182.536C-0.0452389 176.492 -0.37095 170.483 1.65699 165.933C19.1176 150.594 33.6905 132.36 49.0361 114.912C48.3367 113.315 47.6105 111.786 46.9118 110.314C44.0638 104.316 41.6766 99.2895 43.464 94.6562ZM451.157 128.27C464.763 201.332 437.89 262.401 396.49 292.278C389.203 284.168 379.952 278.036 372.192 270.406C389.134 231.873 401.289 188.549 400.134 131.913C414.7 128.537 433.712 124.929 451.157 128.27ZM521.618 225.457C521.015 234.329 518.61 242.739 517.964 252.185C517.011 266.265 518.805 279.878 520.513 292.802C523.424 314.851 526.071 334.888 514.321 351.802C509.511 343.359 502.834 336.491 500.963 326.287C499.205 316.728 501.942 305.888 504.661 295.109C508.669 279.235 512.638 263.499 502.177 252.185C484.783 261.874 474.986 293.214 482.735 316.573C472.624 329.576 453.421 339.85 435.355 340.872C436.323 329.454 443.516 320.238 447.513 310.499C454.205 294.16 459.065 279.019 457.227 253.395C456.444 242.457 450.251 232.209 449.94 221.81C449.796 216.92 451.417 211.72 453.071 206.423C454.241 202.668 455.429 198.862 456.014 195.081C459.347 173.372 458.007 151.785 454.8 129.485C498.652 143.5 525.944 160.903 521.618 225.457ZM153.51 223.03C133.736 228.764 119.355 239.897 103.702 249.755C100.152 235.893 92.8534 225.778 85.4801 215.743C103.94 179.135 129.291 149.409 165.659 130.705C172.528 132.332 178.222 135.138 185.097 136.771C168.137 159.09 154.492 184.725 153.51 223.03ZM394.056 133.128C402.102 182.627 384.827 232.198 369.754 267.98C345.072 251.756 321.51 234.416 290.784 224.247C297.558 201.057 301.567 175.101 301.718 145.284C333.542 142.273 364.609 138.514 394.056 133.128ZM239.013 151.131C234.947 169.569 230.881 188 231.261 210.879C201.871 209.832 176.781 213.085 157.152 221.813C157.17 189.025 171.098 153.157 189.958 139.2C206.46 142.134 220.489 147.544 239.768 147.706C239.515 148.849 239.266 149.99 239.013 151.131ZM298.082 145.277C299.285 175.643 293.969 199.483 288.354 223.03C272.289 216.823 254.01 212.829 233.691 210.879C234.005 191.871 238.645 167.446 242.191 147.706C262.243 148.311 280.175 146.806 298.082 145.277ZM223.97 213.306C227.415 233.347 233.261 250.99 239.761 267.973C220.337 260.913 201.138 270.186 203.319 292.271C184.65 299.793 173.95 281.655 165.522 267.366C165.158 266.749 164.8 266.142 164.446 265.542C156.636 252.384 150.523 239.247 148.652 227.887C169.668 218.942 193.836 213.14 223.97 213.306ZM244.69 269.215L244.618 269.2C236.457 253.056 230.354 234.863 227.617 213.306C281.627 213.161 313.786 241.331 329.66 275.267C300.686 281.749 269.234 274.711 244.69 269.215ZM447.513 226.67C461.968 262.527 452.312 310.944 430.498 333.584C423.894 316.699 409.844 307.271 400.126 293.492C421.828 277.123 436.843 254.074 447.513 226.67ZM157.152 322.643C131.703 308.001 112.365 287.248 104.916 254.616C114.87 243.115 130.517 237.294 143.789 229.1C154.469 254.464 165.353 279.622 185.097 295.915C174.358 303.407 163.76 311.023 157.152 322.643ZM298.082 230.314C338.634 245.649 368.642 271.529 398.92 297.135C377.276 297.363 364.464 312.901 353.966 320.22C342.364 283.218 322.98 254.005 298.082 230.314ZM248.268 320.217C237.006 307.99 226.303 295.2 206.962 291.058C205.872 262.412 230.17 268.276 252.872 273.754C255.003 274.27 257.122 274.779 259.202 275.26C284.916 281.185 307.803 283.702 330.877 277.69C339.818 289.404 345.769 304.108 350.319 320.217C322.467 314.284 276.304 314.926 248.268 320.217ZM220.33 371.236C219.658 377.1 220.789 383.134 221.886 388.977C223.136 395.646 224.338 402.063 222.76 407.685C221.962 410.52 219.713 412.539 217.506 414.517C214.166 417.511 210.934 420.411 213.039 425.903C201.499 428.943 191.005 429.785 181.454 425.903C193.746 387.276 181.115 346.869 158.372 326.283C172.058 292.448 225.96 283.254 244.625 321.43C235.456 335.469 222.887 348.96 220.33 371.236ZM474.235 425.903C464.951 428.048 454.1 429.203 446.293 424.69C453.612 399.019 451.637 365.491 438.995 346.938C453.735 338.189 472.845 333.819 483.945 321.423C492.875 330.111 489.582 345.132 486.249 360.353C484.414 368.716 482.569 377.136 482.732 384.6C482.8 387.89 483.786 391.111 484.739 394.231C485.913 398.066 487.043 401.756 486.375 405.248C485.617 409.238 482.771 412.134 480.02 414.933C476.817 418.19 473.74 421.321 474.235 425.903ZM160.257 20.1217C191.973 6.70718 225.187 0 259.907 0C294.623 0 327.84 6.70718 359.556 20.1217C390.185 33.0765 417.307 51.3625 440.927 74.9802C454.992 89.0476 467.168 104.358 477.452 120.913L475.062 119.951L474.661 119.794L469.757 117.976L469.429 117.859L464.276 116.077L456.072 113.371L453.605 112.774L449.203 112.078L448.185 111.951L447.225 111.863C441.032 103.849 434.29 96.1959 426.999 88.905C405.193 67.0978 380.154 50.2156 351.882 38.2582C322.622 25.8808 291.961 19.6922 259.907 19.6922C227.852 19.6922 197.191 25.8808 167.927 38.2582C141.88 49.2753 118.576 64.4733 98.0157 83.8521L82.5516 71.3855C105.298 49.4992 131.2 32.4114 160.257 20.1217ZM359.556 491.876C327.84 505.291 294.623 512 259.907 512C225.187 512 191.973 505.291 160.257 491.876C129.628 478.92 102.505 460.634 78.8868 437.018C55.2694 413.398 36.983 386.276 24.0282 355.648C10.6137 323.932 3.90666 290.715 3.90666 255.999C3.90666 240.237 5.28927 224.785 8.05421 209.641L11.8133 212.825L12.8356 213.67L13.925 214.425L15.0748 215.086L16.2758 215.646L17.5201 216.104L18.7984 216.455L26.5642 218.235C24.5872 230.602 23.5989 243.187 23.5989 255.999C23.5989 288.053 29.7878 318.714 42.1651 347.978C54.1222 376.248 71.0044 401.287 92.8116 423.094C114.618 444.9 139.657 461.782 167.927 473.738C197.191 486.116 227.852 492.306 259.907 492.306C291.961 492.306 322.619 486.116 351.882 473.738C380.154 461.782 405.193 444.9 426.999 423.094C428.339 421.754 429.661 420.4 430.964 419.035L430.643 423.581L430.603 424.74L430.65 425.896L430.784 427.044L430.997 428.182L431.296 429.297L431.679 430.391L432.138 431.453L432.676 432.479L433.283 433.461L433.965 434.392L434.716 435.277L435.525 436.1L436.399 436.862L437.32 437.559L438.295 438.184L439.233 438.697C416.015 461.504 389.456 479.23 359.556 491.876Z" fill="#991D1D"/>
</svg>
