<svg width="556" height="142" viewBox="0 0 556 142" fill="none" xmlns="http://www.w3.org/2000/svg">
<path d="M354.651 79.1336H154.056V118.915H354.651V79.1336Z" fill="#991D1D"/>
<path fill-rule="evenodd" clip-rule="evenodd" d="M12.0229 26.2133C13.241 28.1346 14.5267 29.5972 16.3691 30.8958C16.4206 27.6969 16.6942 24.3451 17.9396 21.3923C19.5439 23.489 20.2503 26.4836 21.3043 29.1306C29.2582 31.1565 37.6321 32.764 44.8537 35.5236C35.3648 41.3969 27.6008 48.9981 22.9858 59.7461C20.9614 59.3301 19.1597 58.5371 17.3592 57.7441C14.0732 56.2971 10.7909 54.8521 6.16412 55.7081C4.81882 53.2421 2.48881 51.9511 0.0768146 50.5501C-0.0261854 48.8761 -0.116385 47.2121 0.445215 45.9521C5.28062 41.7043 9.31632 36.6548 13.566 31.8227C13.3723 31.3805 13.1712 30.957 12.9777 30.5494C12.189 28.8884 11.5279 27.4964 12.0229 26.2133ZM124.926 35.522C128.694 55.7551 121.252 72.6671 109.787 80.9411C107.769 78.6951 105.207 76.9971 103.058 74.8841C107.75 64.2131 111.116 52.2151 110.796 36.531C114.83 35.5961 120.095 34.5968 124.926 35.522ZM144.439 62.4361C144.272 64.8931 143.606 67.2221 143.427 69.8381C143.163 73.7371 143.66 77.5071 144.133 81.0861C144.939 87.1921 145.672 92.7411 142.418 97.4251C141.086 95.0871 139.237 93.1851 138.719 90.3591C138.232 87.7121 138.99 84.7101 139.743 81.7251C140.853 77.3291 141.952 72.9711 139.055 69.8381C134.238 72.5211 131.525 81.2001 133.671 87.6691C130.871 91.2701 125.553 94.1151 120.55 94.3981C120.818 91.2361 122.81 88.6841 123.917 85.9871C125.77 81.4621 127.116 77.2691 126.607 70.1731C126.39 67.1441 124.675 64.3061 124.589 61.4261C124.549 60.0721 124.998 58.6321 125.456 57.1651C125.78 56.1251 126.109 55.0711 126.271 54.0241C127.194 48.0121 126.823 42.0341 125.935 35.8584C138.079 39.7396 145.637 44.5591 144.439 62.4361ZM42.498 61.7641C37.0222 63.3521 33.0396 66.4351 28.7046 69.1651C27.7215 65.3261 25.7004 62.5251 23.6585 59.7461C28.7706 49.6081 35.7912 41.376 45.8627 36.1963C47.7647 36.6468 49.3417 37.424 51.2457 37.8762C46.5487 44.0571 42.77 51.1561 42.498 61.7641ZM109.113 36.8673C111.341 50.5751 106.557 64.3031 102.383 74.2121C95.5477 69.7191 89.0227 64.9171 80.5137 62.1011C82.3897 55.6791 83.4997 48.4911 83.5417 40.2336C92.3547 39.4 100.958 38.3589 109.113 36.8673ZM66.1767 41.853C65.0507 46.9591 63.9247 52.0631 64.0297 58.3991C55.8907 58.1091 48.9427 59.0101 43.5067 61.4271C43.5117 52.3471 47.3687 42.4141 52.5917 38.5488C57.1617 39.3614 61.0467 40.8595 66.3857 40.9046C66.3157 41.2209 66.2467 41.5369 66.1767 41.853ZM82.5347 40.2319C82.8677 48.6411 81.3957 55.2431 79.8407 61.7641C75.3917 60.0451 70.3297 58.9391 64.7027 58.3991C64.7897 53.1351 66.0747 46.3711 67.0567 40.9046C72.6097 41.0719 77.5757 40.6551 82.5347 40.2319ZM62.0107 59.0711C62.9647 64.6211 64.5837 69.5071 66.3837 74.2101C61.0047 72.2551 55.6877 74.8231 56.2917 80.9391C51.1217 83.0221 48.1587 77.9991 45.8247 74.0421C45.7237 73.8711 45.6247 73.7031 45.5267 73.5371C43.3637 69.8931 41.671 66.2551 41.1528 63.1091C46.9727 60.6321 53.6657 59.0251 62.0107 59.0711ZM67.7487 74.5541L67.7287 74.5501C65.4687 70.0791 63.7787 65.0411 63.0207 59.0711C77.9777 59.0311 86.8837 66.8321 91.2797 76.2301C83.2557 78.0251 74.5457 76.0761 67.7487 74.5541ZM123.917 62.7721C127.92 72.7021 125.246 86.1101 119.205 92.3801C117.376 87.7041 113.485 85.0931 110.794 81.2771C116.804 76.7441 120.962 70.3611 123.917 62.7721ZM43.5067 89.3501C36.459 85.2951 31.1038 79.5481 29.041 70.5111C31.7974 67.3261 36.1307 65.7141 39.806 63.4451C42.7636 70.4691 45.7777 77.4361 51.2457 81.9481C48.2717 84.0231 45.3367 86.1321 43.5067 89.3501ZM82.5347 63.7811C93.7647 68.0281 102.075 75.1951 110.46 82.2861C104.466 82.3491 100.918 86.6521 98.0107 88.6791C94.7977 78.4321 89.4297 70.3421 82.5347 63.7811ZM68.7397 88.6781C65.6207 85.2921 62.6567 81.7501 57.3007 80.6031C56.9987 72.6701 63.7277 74.2941 70.0147 75.8111C70.6047 75.9541 71.1917 76.0951 71.7677 76.2281C78.8887 77.8691 85.2267 78.5661 91.6167 76.9011C94.0927 80.1451 95.7407 84.2171 97.0007 88.6781C89.2877 87.0351 76.5037 87.2131 68.7397 88.6781ZM61.0027 102.807C60.8167 104.431 61.1297 106.102 61.4337 107.72C61.7797 109.567 62.1127 111.344 61.6757 112.901C61.4547 113.686 60.8317 114.245 60.2207 114.793C59.2957 115.622 58.4007 116.425 58.9837 117.946C55.7877 118.788 52.8817 119.021 50.2367 117.946C53.6407 107.249 50.1427 96.0591 43.8447 90.3581C47.6347 80.9881 62.5617 78.4421 67.7307 89.0141C65.1917 92.9021 61.7107 96.6381 61.0027 102.807ZM131.317 117.946C128.746 118.54 125.741 118.86 123.579 117.61C125.606 110.501 125.059 101.216 121.558 96.0781C125.64 93.6551 130.932 92.4451 134.006 89.0121C136.479 91.4181 135.567 95.5781 134.644 99.7931C134.136 102.109 133.625 104.441 133.67 106.508C133.689 107.419 133.962 108.311 134.226 109.175C134.551 110.237 134.864 111.259 134.679 112.226C134.469 113.331 133.681 114.133 132.919 114.908C132.032 115.81 131.18 116.677 131.317 117.946ZM44.3667 5.57233C53.1497 1.85743 62.3477 0 71.9627 0C81.5767 0 90.7757 1.85743 99.5587 5.57233C108.041 9.15993 115.552 14.2239 122.093 20.7644C125.988 24.6601 129.36 28.9001 132.208 33.4845L131.546 33.2181L131.435 33.1748L130.077 32.6713L129.986 32.6388L128.559 32.1455L126.287 31.3961L125.604 31.2307L124.385 31.0379L124.103 31.0028L123.837 30.9783C122.122 28.759 120.255 26.6397 118.236 24.6206C112.197 18.5815 105.263 13.9063 97.4337 10.5949C89.3307 7.16721 80.8397 5.4534 71.9627 5.4534C63.0857 5.4534 54.5947 7.16721 46.4907 10.5949C39.2775 13.6459 32.8239 17.8547 27.13 23.2213L22.8475 19.7689C29.1468 13.7079 36.3199 8.97573 44.3667 5.57233ZM99.5587 136.216C90.7757 139.931 81.5767 141.789 71.9627 141.789C62.3477 141.789 53.1497 139.931 44.3667 136.216C35.8845 132.628 28.3732 127.564 21.8326 121.024C15.2922 114.483 10.2281 106.972 6.64052 98.4901C2.92562 89.7071 1.06822 80.5081 1.06822 70.8941C1.06822 66.5291 1.45111 62.2501 2.21681 58.0561L3.25781 58.9381L3.54092 59.1721L3.84262 59.3811L4.16102 59.5641L4.49362 59.7191L4.83821 59.8461L5.19222 59.9431L7.34281 60.4361C6.79531 63.8611 6.52162 67.3461 6.52162 70.8941C6.52162 79.7711 8.23552 88.2621 11.6632 96.3661C14.9745 104.195 19.6497 111.129 25.6888 117.168C31.7278 123.207 38.6618 127.882 46.4907 131.193C54.5947 134.621 63.0857 136.335 71.9627 136.335C80.8397 136.335 89.3297 134.621 97.4337 131.193C105.263 127.882 112.197 123.207 118.236 117.168C118.607 116.797 118.973 116.422 119.334 116.044L119.245 117.303L119.234 117.624L119.247 117.944L119.284 118.262L119.343 118.577L119.426 118.886L119.532 119.189L119.659 119.483L119.808 119.767L119.976 120.039L120.165 120.297L120.373 120.542L120.597 120.77L120.839 120.981L121.094 121.174L121.364 121.347L121.624 121.489C115.194 127.805 107.839 132.714 99.5587 136.216Z" fill="#991D1D"/>
<path d="M185.711 47.2314V73.3857H182.271V53.8833L173.579 73.3857H171.16L162.429 53.8455V73.3857H158.99V47.2314H162.694L172.369 68.8503L182.045 47.2314H185.711ZM194.983 49.8392V58.6455H204.583V61.4802H194.983V70.5511H205.717V73.3857H191.544V47.0046H205.717V49.8392H194.983ZM224.792 73.3857L218.518 62.6141H214.361V73.3857H210.921V47.0424H219.425C221.416 47.0424 223.091 47.3825 224.452 48.0629C225.838 48.7432 226.871 49.6629 227.551 50.8219C228.231 51.981 228.572 53.3038 228.572 54.7904C228.572 56.6046 228.042 58.2046 226.984 59.5904C225.951 60.9763 224.389 61.8959 222.298 62.3495L228.912 73.3857H224.792ZM214.361 59.855H219.425C221.29 59.855 222.688 59.4015 223.62 58.4944C224.553 57.5621 225.019 56.3274 225.019 54.7904C225.019 53.2282 224.553 52.0188 223.62 51.1621C222.713 50.3054 221.315 49.877 219.425 49.877H214.361V59.855ZM232.631 60.1952C232.631 57.6251 233.21 55.3196 234.369 53.2786C235.528 51.2125 237.103 49.5999 239.094 48.4408C241.11 47.2818 243.339 46.7022 245.784 46.7022C248.656 46.7022 251.163 47.3951 253.305 48.781C255.447 50.1668 257.009 52.1322 257.991 54.677H253.872C253.141 53.0896 252.083 51.8676 250.697 51.0109C249.336 50.1542 247.698 49.7259 245.784 49.7259C243.944 49.7259 242.294 50.1542 240.832 51.0109C239.371 51.8676 238.224 53.0896 237.393 54.677C236.561 56.2392 236.146 58.0786 236.146 60.1952C236.146 62.2865 236.561 64.1259 237.393 65.7133C238.224 67.2755 239.371 68.4849 240.832 69.3416C242.294 70.1983 243.944 70.6267 245.784 70.6267C247.698 70.6267 249.336 70.2109 250.697 69.3794C252.083 68.5227 253.141 67.3007 253.872 65.7133H257.991C257.009 68.233 255.447 70.1857 253.305 71.5715C251.163 72.9322 248.656 73.6125 245.784 73.6125C243.339 73.6125 241.11 73.0456 239.094 71.9117C237.103 70.7526 235.528 69.1526 234.369 67.1117C233.21 65.0707 232.631 62.7652 232.631 60.1952ZM278.683 67.5274H267.193L265.077 73.3857H261.448L270.973 47.1936H274.941L284.428 73.3857H280.799L278.683 67.5274ZM277.7 64.7306L272.938 51.4266L268.176 64.7306H277.7ZM296.78 47.0424C299.653 47.0424 302.135 47.5841 304.226 48.6676C306.343 49.7259 307.955 51.2503 309.064 53.2408C310.198 55.2314 310.765 57.5747 310.765 60.2707C310.765 62.9668 310.198 65.3101 309.064 67.3007C307.955 69.266 306.343 70.7778 304.226 71.8361C302.135 72.8692 299.653 73.3857 296.78 73.3857H288.579V47.0424H296.78ZM296.78 70.5511C300.182 70.5511 302.777 69.6566 304.566 67.8676C306.355 66.0534 307.25 63.5211 307.25 60.2707C307.25 56.9951 306.343 54.4377 304.528 52.5983C302.739 50.7589 300.157 49.8392 296.78 49.8392H292.018V70.5511H296.78ZM327.245 73.6503C324.8 73.6503 322.57 73.0833 320.555 71.9495C318.539 70.7904 316.939 69.1904 315.755 67.1495C314.596 65.0833 314.016 62.7652 314.016 60.1952C314.016 57.6251 314.596 55.3196 315.755 53.2786C316.939 51.2125 318.539 49.6125 320.555 48.4786C322.57 47.3196 324.8 46.74 327.245 46.74C329.714 46.74 331.956 47.3196 333.972 48.4786C335.988 49.6125 337.575 51.1999 338.734 53.2408C339.893 55.2818 340.473 57.5999 340.473 60.1952C340.473 62.7904 339.893 65.1085 338.734 67.1495C337.575 69.1904 335.988 70.7904 333.972 71.9495C331.956 73.0833 329.714 73.6503 327.245 73.6503ZM327.245 70.6644C329.084 70.6644 330.734 70.2361 332.196 69.3794C333.682 68.5227 334.841 67.3007 335.673 65.7133C336.53 64.1259 336.958 62.2865 336.958 60.1952C336.958 58.0786 336.53 56.2392 335.673 54.677C334.841 53.0896 333.695 51.8676 332.233 51.0109C330.772 50.1542 329.109 49.7259 327.245 49.7259C325.38 49.7259 323.717 50.1542 322.256 51.0109C320.794 51.8676 319.635 53.0896 318.778 54.677C317.947 56.2392 317.531 58.0786 317.531 60.1952C317.531 62.2865 317.947 64.1259 318.778 65.7133C319.635 67.3007 320.794 68.5227 322.256 69.3794C323.742 70.2361 325.405 70.6644 327.245 70.6644ZM363.291 47.0424C366.164 47.0424 368.646 47.5841 370.737 48.6676C372.853 49.7259 374.466 51.2503 375.575 53.2408C376.709 55.2314 377.275 57.5747 377.275 60.2707C377.275 62.9668 376.709 65.3101 375.575 67.3007C374.466 69.266 372.853 70.7778 370.737 71.8361C368.646 72.8692 366.164 73.3857 363.291 73.3857H355.09V47.0424H363.291ZM363.291 70.5511C366.693 70.5511 369.288 69.6566 371.077 67.8676C372.866 66.0534 373.76 63.5211 373.76 60.2707C373.76 56.9951 372.853 54.4377 371.039 52.5983C369.25 50.7589 366.668 49.8392 363.291 49.8392H358.529V70.5511H363.291ZM385.251 49.8392V58.6455H394.851V61.4802H385.251V70.5511H395.985V73.3857H381.812V47.0046H395.985V49.8392H385.251ZM409.981 60.1952C409.981 57.6251 410.56 55.3196 411.719 53.2786C412.878 51.2125 414.453 49.5999 416.444 48.4408C418.46 47.2818 420.689 46.7022 423.134 46.7022C426.006 46.7022 428.513 47.3951 430.655 48.781C432.797 50.1668 434.359 52.1322 435.341 54.677H431.222C430.491 53.0896 429.433 51.8676 428.047 51.0109C426.686 50.1542 425.049 49.7259 423.134 49.7259C421.294 49.7259 419.644 50.1542 418.182 51.0109C416.721 51.8676 415.574 53.0896 414.743 54.677C413.912 56.2392 413.496 58.0786 413.496 60.1952C413.496 62.2865 413.912 64.1259 414.743 65.7133C415.574 67.2755 416.721 68.4849 418.182 69.3416C419.644 70.1983 421.294 70.6267 423.134 70.6267C425.049 70.6267 426.686 70.2109 428.047 69.3794C429.433 68.5227 430.491 67.3007 431.222 65.7133H435.341C434.359 68.233 432.797 70.1857 430.655 71.5715C428.513 72.9322 426.006 73.6125 423.134 73.6125C420.689 73.6125 418.46 73.0456 416.444 71.9117C414.453 70.7526 412.878 69.1526 411.719 67.1117C410.56 65.0707 409.981 62.7652 409.981 60.1952ZM456.033 67.5274H444.543L442.427 73.3857H438.798L448.323 47.1936H452.291L461.778 73.3857H458.149L456.033 67.5274ZM455.05 64.7306L450.288 51.4266L445.526 64.7306H455.05ZM479.8 73.3857L473.526 62.6141H469.368V73.3857H465.929V47.0424H474.433C476.423 47.0424 478.099 47.3825 479.459 48.0629C480.845 48.7432 481.878 49.6629 482.559 50.8219C483.239 51.981 483.579 53.3038 483.579 54.7904C483.579 56.6046 483.05 58.2046 481.992 59.5904C480.959 60.9763 479.396 61.8959 477.305 62.3495L483.919 73.3857H479.8ZM469.368 59.855H474.433C476.297 59.855 477.696 59.4015 478.628 58.4944C479.56 57.5621 480.026 56.3274 480.026 54.7904C480.026 53.2282 479.56 52.0188 478.628 51.1621C477.721 50.3054 476.322 49.877 474.433 49.877H469.368V59.855ZM509.635 73.3857H506.196L492.363 52.4093V73.3857H488.923V47.0046H492.363L506.196 67.9432V47.0046H509.635V73.3857ZM518.938 49.8392V58.6455H528.538V61.4802H518.938V70.5511H529.671V73.3857H515.498V47.0046H529.671V49.8392H518.938ZM543.228 73.6503C541.49 73.6503 539.928 73.3479 538.542 72.7432C537.181 72.1133 536.11 71.2566 535.329 70.1731C534.548 69.0644 534.145 67.792 534.12 66.3558H537.786C537.912 67.5904 538.416 68.6361 539.298 69.4928C540.205 70.3243 541.515 70.74 543.228 70.74C544.866 70.74 546.151 70.3369 547.084 69.5306C548.041 68.6991 548.52 67.6408 548.52 66.3558C548.52 65.3479 548.243 64.529 547.688 63.8991C547.134 63.2692 546.441 62.7904 545.61 62.4629C544.778 62.1353 543.657 61.7826 542.246 61.4046C540.507 60.9511 539.109 60.4975 538.05 60.044C537.017 59.5904 536.123 58.8849 535.367 57.9274C534.636 56.9448 534.271 55.6345 534.271 53.9967C534.271 52.5605 534.636 51.2881 535.367 50.1794C536.098 49.0707 537.118 48.214 538.428 47.6093C539.764 47.0046 541.288 46.7022 543.002 46.7022C545.471 46.7022 547.487 47.3196 549.049 48.5542C550.636 49.7888 551.531 51.4266 551.732 53.4676H547.953C547.827 52.4597 547.298 51.5778 546.365 50.8219C545.433 50.0408 544.199 49.6503 542.661 49.6503C541.225 49.6503 540.054 50.0282 539.147 50.7841C538.239 51.5148 537.786 52.5479 537.786 53.8833C537.786 54.8408 538.05 55.6219 538.58 56.2266C539.134 56.8314 539.802 57.2975 540.583 57.6251C541.389 57.9274 542.51 58.2802 543.947 58.6833C545.685 59.1621 547.084 59.6408 548.142 60.1196C549.2 60.5731 550.107 61.2912 550.863 62.2739C551.619 63.2314 551.997 64.5416 551.997 66.2046C551.997 67.4896 551.657 68.6991 550.976 69.833C550.296 70.9668 549.288 71.8865 547.953 72.592C546.617 73.2975 545.043 73.6503 543.228 73.6503Z" fill="#991D1D"/>
<path d="M166.609 89.3752C168.907 89.3752 170.892 89.8086 172.565 90.6754C174.258 91.522 175.549 92.7415 176.435 94.334C177.343 95.9264 177.796 97.801 177.796 99.9579C177.796 102.115 177.343 103.989 176.435 105.582C175.549 107.154 174.258 108.364 172.565 109.21C170.892 110.037 168.907 110.45 166.609 110.45H160.047V89.3752H166.609ZM166.609 108.182C169.33 108.182 171.406 107.467 172.837 106.035C174.269 104.584 174.984 102.558 174.984 99.9579C174.984 97.3374 174.258 95.2914 172.807 93.8199C171.376 92.3485 169.31 91.6127 166.609 91.6127H162.799V108.182H166.609ZM190.98 110.662C189.025 110.662 187.241 110.208 185.628 109.301C184.016 108.374 182.736 107.094 181.788 105.461C180.861 103.808 180.397 101.953 180.397 99.8974C180.397 97.8414 180.861 95.997 181.788 94.3642C182.736 92.7113 184.016 91.4313 185.628 90.5242C187.241 89.597 189.025 89.1333 190.98 89.1333C192.955 89.1333 194.749 89.597 196.362 90.5242C197.975 91.4313 199.245 92.7012 200.172 94.334C201.099 95.9667 201.563 97.8212 201.563 99.8974C201.563 101.974 201.099 103.828 200.172 105.461C199.245 107.094 197.975 108.374 196.362 109.301C194.749 110.208 192.955 110.662 190.98 110.662ZM190.98 108.273C192.451 108.273 193.772 107.93 194.941 107.245C196.13 106.559 197.057 105.582 197.723 104.312C198.408 103.042 198.751 101.57 198.751 99.8974C198.751 98.2042 198.408 96.7327 197.723 95.4829C197.057 94.213 196.14 93.2354 194.971 92.55C193.802 91.8647 192.472 91.522 190.98 91.522C189.488 91.522 188.158 91.8647 186.989 92.55C185.82 93.2354 184.892 94.213 184.207 95.4829C183.542 96.7327 183.209 98.2042 183.209 99.8974C183.209 101.57 183.542 103.042 184.207 104.312C184.892 105.582 185.82 106.559 186.989 107.245C188.178 107.93 189.509 108.273 190.98 108.273ZM207.947 89.3752V110.45H205.195V89.3752H207.947ZM219.318 110.662C217.927 110.662 216.678 110.42 215.569 109.936C214.48 109.432 213.624 108.747 212.999 107.88C212.374 106.993 212.051 105.975 212.031 104.826H214.964C215.065 105.814 215.468 106.65 216.174 107.336C216.899 108.001 217.947 108.333 219.318 108.333C220.628 108.333 221.656 108.011 222.402 107.366C223.168 106.701 223.551 105.854 223.551 104.826C223.551 104.02 223.33 103.365 222.886 102.861C222.443 102.357 221.888 101.974 221.223 101.712C220.558 101.45 219.661 101.167 218.532 100.865C217.141 100.502 216.022 100.139 215.176 99.7765C214.349 99.4136 213.634 98.8492 213.029 98.0833C212.444 97.2971 212.152 96.2489 212.152 94.9387C212.152 93.7897 212.444 92.7718 213.029 91.8848C213.614 90.9979 214.43 90.3125 215.478 89.8288C216.547 89.345 217.766 89.1031 219.137 89.1031C221.112 89.1031 222.725 89.597 223.975 90.5847C225.244 91.5724 225.96 92.8826 226.121 94.5154H223.098C222.997 93.7091 222.574 93.0036 221.828 92.3988C221.082 91.774 220.094 91.4615 218.865 91.4615C217.716 91.4615 216.778 91.7639 216.053 92.3686C215.327 92.9532 214.964 93.7796 214.964 94.848C214.964 95.614 215.176 96.2388 215.599 96.7226C216.043 97.2064 216.577 97.5793 217.202 97.8414C217.847 98.0833 218.744 98.3655 219.893 98.688C221.284 99.071 222.402 99.454 223.249 99.837C224.095 100.2 224.821 100.774 225.426 101.56C226.031 102.326 226.333 103.375 226.333 104.705C226.333 105.733 226.061 106.701 225.517 107.608C224.972 108.515 224.166 109.25 223.098 109.815C222.029 110.379 220.77 110.662 219.318 110.662ZM241.195 89.3752V110.45H238.443V89.3752H241.195ZM256.981 110.45L251.961 101.833H248.635V110.45H245.884V89.3752H252.687C254.28 89.3752 255.62 89.6474 256.709 90.1916C257.817 90.7359 258.644 91.4716 259.188 92.3988C259.732 93.3261 260.004 94.3844 260.004 95.5736C260.004 97.025 259.581 98.305 258.734 99.4136C257.908 100.522 256.658 101.258 254.985 101.621L260.276 110.45H256.981ZM248.635 99.6253H252.687C254.179 99.6253 255.298 99.2625 256.043 98.5368C256.789 97.791 257.162 96.8033 257.162 95.5736C257.162 94.3239 256.789 93.3563 256.043 92.671C255.318 91.9856 254.199 91.6429 252.687 91.6429H248.635V99.6253ZM285.657 89.5264V110.45H282.905V94.848L275.951 110.45H274.016L267.031 94.8177V110.45H264.28V89.5264H267.243L274.983 106.822L282.724 89.5264H285.657ZM302.78 105.763H293.588L291.895 110.45H288.993L296.612 89.4962H299.787L307.376 110.45H304.473L302.78 105.763ZM301.994 103.526L298.184 92.8826L294.375 103.526H301.994ZM293.74 87.7122C293.881 86.6842 294.213 85.8981 294.737 85.3538C295.282 84.8096 295.957 84.5374 296.763 84.5374C297.146 84.5374 297.469 84.608 297.731 84.7491C298.013 84.87 298.346 85.0515 298.729 85.2933C299.011 85.4949 299.263 85.6562 299.484 85.7771C299.706 85.8779 299.948 85.9283 300.21 85.9283C300.553 85.9283 300.845 85.8174 301.087 85.5957C301.329 85.374 301.48 85.0514 301.541 84.6281H303.113C302.992 85.636 302.659 86.4121 302.115 86.9563C301.571 87.5006 300.896 87.7727 300.089 87.7727C299.706 87.7727 299.364 87.7122 299.061 87.5913C298.779 87.4502 298.456 87.2486 298.094 86.9866C297.771 86.785 297.509 86.6338 297.307 86.533C297.126 86.4322 296.904 86.3818 296.642 86.3818C296.3 86.3818 296.007 86.4927 295.765 86.7144C295.544 86.9362 295.403 87.2688 295.342 87.7122H293.74ZM320.252 110.662C318.296 110.662 316.512 110.208 314.9 109.301C313.287 108.374 312.007 107.094 311.06 105.461C310.133 103.808 309.669 101.953 309.669 99.8974C309.669 97.8414 310.133 95.997 311.06 94.3642C312.007 92.7113 313.287 91.4313 314.9 90.5242C316.512 89.597 318.296 89.1333 320.252 89.1333C322.227 89.1333 324.021 89.597 325.634 90.5242C327.246 91.4313 328.516 92.7012 329.443 94.334C330.371 95.9667 330.834 97.8212 330.834 99.8974C330.834 101.974 330.371 103.828 329.443 105.461C328.516 107.094 327.246 108.374 325.634 109.301C324.021 110.208 322.227 110.662 320.252 110.662ZM320.252 108.273C321.723 108.273 323.043 107.93 324.213 107.245C325.402 106.559 326.329 105.582 326.994 104.312C327.68 103.042 328.022 101.57 328.022 99.8974C328.022 98.2042 327.68 96.7327 326.994 95.4829C326.329 94.213 325.412 93.2354 324.243 92.55C323.074 91.8647 321.743 91.522 320.252 91.522C318.76 91.522 317.43 91.8647 316.26 92.55C315.091 93.2354 314.164 94.213 313.479 95.4829C312.813 96.7327 312.481 98.2042 312.481 99.8974C312.481 101.57 312.813 103.042 313.479 104.312C314.164 105.582 315.091 106.559 316.26 107.245C317.45 107.93 318.78 108.273 320.252 108.273ZM341.149 110.662C339.758 110.662 338.508 110.42 337.4 109.936C336.311 109.432 335.454 108.747 334.829 107.88C334.205 106.993 333.882 105.975 333.862 104.826H336.795C336.896 105.814 337.299 106.65 338.004 107.336C338.73 108.001 339.778 108.333 341.149 108.333C342.459 108.333 343.487 108.011 344.233 107.366C344.999 106.701 345.382 105.854 345.382 104.826C345.382 104.02 345.16 103.365 344.717 102.861C344.273 102.357 343.719 101.974 343.054 101.712C342.388 101.45 341.491 101.167 340.363 100.865C338.972 100.502 337.853 100.139 337.006 99.7765C336.18 99.4136 335.464 98.8492 334.86 98.0833C334.275 97.2971 333.983 96.2489 333.983 94.9387C333.983 93.7897 334.275 92.7718 334.86 91.8848C335.444 90.9979 336.261 90.3125 337.309 89.8288C338.377 89.345 339.597 89.1031 340.967 89.1031C342.943 89.1031 344.555 89.597 345.805 90.5847C347.075 91.5724 347.791 92.8826 347.952 94.5154H344.928C344.828 93.7091 344.404 93.0036 343.658 92.3988C342.913 91.774 341.925 91.4615 340.695 91.4615C339.546 91.4615 338.609 91.7639 337.883 92.3686C337.158 92.9532 336.795 93.7796 336.795 94.848C336.795 95.614 337.006 96.2388 337.43 96.7226C337.873 97.2064 338.407 97.5793 339.032 97.8414C339.677 98.0833 340.574 98.3655 341.723 98.688C343.114 99.071 344.233 99.454 345.08 99.837C345.926 100.2 346.652 100.774 347.257 101.56C347.861 102.326 348.164 103.375 348.164 104.705C348.164 105.733 347.891 106.701 347.347 107.608C346.803 108.515 345.997 109.25 344.928 109.815C343.86 110.379 342.6 110.662 341.149 110.662Z" fill="white"/>
</svg>
